<svg width="184" height="114" viewBox="0 0 184 114" fill="none" xmlns="http://www.w3.org/2000/svg">
<path fill-rule="evenodd" clip-rule="evenodd" d="M169 21C172.866 21 176 24.134 176 28C176 31.866 172.866 35 169 35H129C132.866 35 136 38.134 136 42C136 45.866 132.866 49 129 49H151C154.866 49 158 52.134 158 56C158 59.866 154.866 63 151 63H140.826C135.952 63 132 66.134 132 70C132 72.5773 134 74.9107 138 77C141.866 77 145 80.134 145 84C145 87.866 141.866 91 138 91H55C51.134 91 48 87.866 48 84C48 80.134 51.134 77 55 77H16C12.134 77 9 73.866 9 70C9 66.134 12.134 63 16 63H56C59.866 63 63 59.866 63 56C63 52.134 59.866 49 56 49H31C27.134 49 24 45.866 24 42C24 38.134 27.134 35 31 35H71C67.134 35 64 31.866 64 28C64 24.134 67.134 21 71 21H169ZM169 49C172.866 49 176 52.134 176 56C176 59.866 172.866 63 169 63C165.134 63 162 59.866 162 56C162 52.134 165.134 49 169 49Z" fill="#C5E4DF"/>
<path fill-rule="evenodd" clip-rule="evenodd" d="M115.672 19.9999L124.974 87.8427L125.809 94.649C126.079 96.8417 124.519 98.8374 122.327 99.1066L63.7665 106.297C61.5739 106.566 59.5781 105.007 59.3089 102.814L50.2931 29.3867C50.1585 28.2904 50.9381 27.2925 52.0345 27.1579C52.0414 27.157 52.0483 27.1562 52.0553 27.1554L56.9136 26.6104M60.8422 26.1698L65.4292 25.6552Z" fill="white"/>
<path d="M116.91 19.8302C116.817 19.1462 116.186 18.6678 115.502 18.7615C114.818 18.8553 114.34 19.4858 114.433 20.1697L116.91 19.8302ZM124.974 87.8427L126.214 87.6903C126.214 87.6845 126.213 87.6787 126.212 87.6729L124.974 87.8427ZM125.809 94.649L127.05 94.4967L125.809 94.649ZM122.327 99.1066L122.479 100.347L122.327 99.1066ZM63.7665 106.297L63.9189 107.538L63.7665 106.297ZM59.3089 102.814L60.5496 102.662L59.3089 102.814ZM50.2931 29.3867L49.0524 29.539L50.2931 29.3867ZM52.0553 27.1554L52.1946 28.3976L52.0553 27.1554ZM57.053 27.8527C57.739 27.7757 58.2328 27.1572 58.1558 26.4711C58.0789 25.7851 57.4603 25.2913 56.7743 25.3682L57.053 27.8527ZM60.7028 24.9276C60.0168 25.0045 59.523 25.6231 59.5999 26.3091C59.6769 26.9952 60.2954 27.4889 60.9815 27.412L60.7028 24.9276ZM65.5685 26.8974C66.2546 26.8205 66.7484 26.2019 66.6714 25.5159C66.5945 24.8298 65.9759 24.3361 65.2899 24.413L65.5685 26.8974ZM114.433 20.1697L123.735 88.0125L126.212 87.6729L116.91 19.8302L114.433 20.1697ZM123.733 87.995L124.569 94.8013L127.05 94.4967L126.214 87.6903L123.733 87.995ZM124.569 94.8013C124.754 96.3088 123.682 97.6809 122.174 97.866L122.479 100.347C125.357 99.994 127.404 97.3745 127.05 94.4967L124.569 94.8013ZM122.174 97.866L63.6142 105.056L63.9189 107.538L122.479 100.347L122.174 97.866ZM63.6142 105.056C62.1067 105.241 60.7347 104.169 60.5496 102.662L58.0682 102.967C58.4216 105.844 61.041 107.891 63.9189 107.538L63.6142 105.056ZM60.5496 102.662L51.5338 29.2344L49.0524 29.539L58.0682 102.967L60.5496 102.662ZM51.5338 29.2344C51.4833 28.8232 51.7757 28.449 52.1868 28.3986L51.8821 25.9172C50.1006 26.1359 48.8337 27.7575 49.0524 29.539L51.5338 29.2344ZM52.1868 28.3986C52.1894 28.3982 52.192 28.3979 52.1946 28.3976L51.9159 25.9132C51.9046 25.9145 51.8934 25.9158 51.8821 25.9172L52.1868 28.3986ZM52.1946 28.3976L57.053 27.8527L56.7743 25.3682L51.9159 25.9132L52.1946 28.3976ZM60.9815 27.412L65.5685 26.8974L65.2899 24.413L60.7028 24.9276L60.9815 27.412Z" fill="#6BC9B5"/>
<path fill-rule="evenodd" clip-rule="evenodd" d="M113.14 24.2692L121.56 85.7529L122.317 91.9212C122.561 93.9083 121.167 95.7146 119.203 95.9557L66.7613 102.395C64.7978 102.636 63.0082 101.22 62.7642 99.2333L54.6142 32.8568C54.4795 31.7605 55.2592 30.7626 56.3555 30.628L62.8431 29.8314" fill="#F2FAF8"/>
<path d="M72.6719 7.25H118.229C118.958 7.25 119.657 7.5395 120.173 8.05485L133.616 21.4898C134.132 22.0056 134.422 22.7053 134.422 23.4349V86C134.422 87.5188 133.191 88.75 131.672 88.75H72.6719C71.1531 88.75 69.9219 87.5188 69.9219 86V10C69.9219 8.48122 71.1531 7.25 72.6719 7.25Z" fill="white" stroke="#6BC9B5" stroke-width="2.5"/>
<path d="M118.672 8.40283V20C118.672 21.6569 120.015 23 121.672 23H129.605" stroke="#6BC9B5" stroke-width="2.5" stroke-linecap="round" stroke-linejoin="round"/>
<path d="M80 74H106M80 23H106H80ZM80 35H123H80ZM80 48H123H80ZM80 61H123H80Z" stroke="#6BC9B5" stroke-width="2.5" stroke-linecap="round" stroke-linejoin="round"/>
</svg>
