<svg width="366" height="191" viewBox="0 0 366 191" fill="none" xmlns="http://www.w3.org/2000/svg">
<path fill-rule="evenodd" clip-rule="evenodd" d="M76.068 154.76H224.944C225.786 154.76 226.607 154.669 227.398 154.496C228.189 154.669 229.01 154.76 229.852 154.76H314.924C321.249 154.76 326.376 149.62 326.376 143.28C326.376 136.94 321.249 131.8 314.924 131.8H305.108C298.783 131.8 293.656 126.66 293.656 120.32C293.656 113.98 298.783 108.84 305.108 108.84H336.192C342.517 108.84 347.644 103.7 347.644 97.36C347.644 91.0197 342.517 85.88 336.192 85.88H300.2C306.525 85.88 311.652 80.7402 311.652 74.4C311.652 68.0597 306.525 62.92 300.2 62.92H195.496C201.821 62.92 206.948 57.7802 206.948 51.44C206.948 45.0997 201.821 39.96 195.496 39.96H102.244C95.9193 39.96 90.792 45.0997 90.792 51.44C90.792 57.7802 95.9193 62.92 102.244 62.92H36.804C30.4792 62.92 25.352 68.0597 25.352 74.4C25.352 80.7402 30.4792 85.88 36.804 85.88H77.704C84.0288 85.88 89.156 91.0197 89.156 97.36C89.156 103.7 84.0288 108.84 77.704 108.84H12.264C5.93925 108.84 0.812012 113.98 0.812012 120.32C0.812012 126.66 5.93925 131.8 12.264 131.8H76.068C69.7432 131.8 64.616 136.94 64.616 143.28C64.616 149.62 69.7432 154.76 76.068 154.76ZM342.736 154.76C349.061 154.76 354.188 149.62 354.188 143.28C354.188 136.94 349.061 131.8 342.736 131.8C336.411 131.8 331.284 136.94 331.284 143.28C331.284 149.62 336.411 154.76 342.736 154.76Z" fill="#6AE5CA" fill-opacity="0.25"/>
<path fill-rule="evenodd" clip-rule="evenodd" d="M248.792 141.763C244.576 144.92 240.466 147.888 235.814 150.453L236.083 173.55C236.104 175.361 234.656 176.846 232.849 176.868C232.115 176.876 231.398 176.637 230.816 176.187L210.1 160.21C202.334 162.002 194.144 162.96 185.68 162.96C135.985 162.96 95.7 129.919 95.7 89.16C95.7 48.4014 135.985 15.36 185.68 15.36C235.375 15.36 275.66 48.4014 275.66 89.16C275.66 100.441 272.574 111.131 267.056 120.693C266.039 122.456 264.938 124.181 263.759 125.865C263.759 125.865 261.455 129.34 256.846 134.26C252.237 139.18 248.792 141.763 248.792 141.763Z" fill="white"/>
<path fill-rule="evenodd" clip-rule="evenodd" d="M248.792 141.763C244.576 144.92 240.466 147.888 235.814 150.453L236.083 173.55C236.104 175.361 234.656 176.846 232.849 176.868C232.115 176.876 231.398 176.637 230.816 176.187L210.1 160.21C202.334 162.002 194.144 162.96 185.68 162.96C135.985 162.96 95.7 129.919 95.7 89.16C95.7 48.4014 135.985 15.36 185.68 15.36C235.375 15.36 275.66 48.4014 275.66 89.16C275.66 100.441 272.574 111.131 267.056 120.693C266.039 122.456 264.938 124.181 263.759 125.865C263.759 125.865 261.455 129.34 256.846 134.26C252.237 139.18 248.792 141.763 248.792 141.763Z" stroke="#6BC9B5" stroke-width="2.5" stroke-linecap="round"/>
<path fill-rule="evenodd" clip-rule="evenodd" d="M239.427 68.8068C248.106 68.8068 256.463 67.7695 264.292 65.8504C267.415 72.9838 269.116 80.6702 269.116 88.6802C269.116 99.0709 266.254 108.917 261.138 117.724C260.194 119.348 259.174 120.937 258.081 122.488C256.355 124.936 255.124 126.665 254.041 128.051C251.478 131.33 249.737 132.693 244.202 137.131C240.51 140.091 236.482 142.773 232.168 145.135L232.417 166.409C232.437 168.077 232.943 171.14 231.267 171.16C230.586 171.168 228.073 169.252 227.533 168.839L210.83 153.885C203.629 155.536 193.528 156.655 185.68 156.655C139.6 156.655 102.244 126.222 102.244 88.6802C102.244 57.9362 127.297 31.9593 161.677 23.5601C170.682 49.5942 202.078 68.8068 239.427 68.8068ZM153.436 79.5632C148.029 79.5632 143.646 83.9855 143.646 89.4407C143.646 94.8958 148.029 99.3181 153.436 99.3181C158.843 99.3181 163.226 94.8958 163.226 89.4407C163.226 83.9855 158.843 79.5632 153.436 79.5632ZM184.439 79.5632C179.032 79.5632 174.648 83.9855 174.648 89.4407C174.648 94.8958 179.032 99.3181 184.439 99.3181C189.846 99.3181 194.229 94.8958 194.229 89.4407C194.229 83.9855 189.846 79.5632 184.439 79.5632ZM215.441 79.5632C210.034 79.5632 205.651 83.9855 205.651 89.4407C205.651 94.8958 210.034 99.3181 215.441 99.3181C220.848 99.3181 225.231 94.8958 225.231 89.4407C225.231 83.9855 220.848 79.5632 215.441 79.5632Z" fill="#CDEDE6" fill-opacity="0.25"/>
<path fill-rule="evenodd" clip-rule="evenodd" d="M152.96 79.3201C158.381 79.3201 162.776 83.7256 162.776 89.1601C162.776 94.5945 158.381 99.0001 152.96 99.0001C147.539 99.0001 143.144 94.5945 143.144 89.1601C143.144 83.7256 147.539 79.3201 152.96 79.3201ZM184.044 79.3201C189.465 79.3201 193.86 83.7256 193.86 89.1601C193.86 94.5945 189.465 99.0001 184.044 99.0001C178.623 99.0001 174.228 94.5945 174.228 89.1601C174.228 83.7256 178.623 79.3201 184.044 79.3201ZM215.128 79.3201C220.549 79.3201 224.944 83.7256 224.944 89.1601C224.944 94.5945 220.549 99.0001 215.128 99.0001C209.707 99.0001 205.312 94.5945 205.312 89.1601C205.312 83.7256 209.707 79.3201 215.128 79.3201Z" fill="white" stroke="#6BC9B5" stroke-width="2.5"/>
<path d="M119.687 65.0703C118.202 67.5827 116.914 70.19 115.842 72.8784" stroke="#6BC9B5" stroke-width="2.5" stroke-linecap="round"/>
<path d="M149.724 38.4401C139.004 43.5689 129.953 50.824 123.413 59.5092" stroke="#6BC9B5" stroke-width="2.5" stroke-linecap="round"/>
</svg>
