<svg width="338" height="176" viewBox="0 0 338 176" fill="none" xmlns="http://www.w3.org/2000/svg">
<path fill-rule="evenodd" clip-rule="evenodd" d="M323.072 0.675903C330.856 0.675903 337.166 6.97294 337.166 14.7407C337.166 22.5085 330.856 28.8055 323.072 28.8055H242.536C250.32 28.8055 256.63 35.1026 256.63 42.8703C256.63 50.6381 250.32 56.9352 242.536 56.9352H286.831C294.615 56.9352 300.925 63.2322 300.925 71C300.925 78.7678 294.615 85.0648 286.831 85.0648H266.347C256.532 85.0648 248.576 91.3618 248.576 99.1296C248.576 104.308 252.603 108.996 260.657 113.194C268.44 113.194 274.75 119.491 274.75 127.259C274.75 135.027 268.44 141.324 260.657 141.324H93.544C85.7602 141.324 79.4502 135.027 79.4502 127.259C79.4502 119.491 85.7602 113.194 93.544 113.194H15.0212C7.23738 113.194 0.927353 106.897 0.927353 99.1296C0.927353 91.3618 7.23738 85.0648 15.0212 85.0648H95.5574C103.341 85.0648 109.651 78.7678 109.651 71C109.651 63.2322 103.341 56.9352 95.5574 56.9352H45.2223C37.4385 56.9352 31.1284 50.6381 31.1284 42.8703C31.1284 35.1026 37.4385 28.8055 45.2223 28.8055H125.758C117.975 28.8055 111.665 22.5085 111.665 14.7407C111.665 6.97294 117.975 0.675903 125.758 0.675903H323.072ZM323.072 56.9352C330.856 56.9352 337.166 63.2322 337.166 71C337.166 78.7678 330.856 85.0648 323.072 85.0648C315.288 85.0648 308.978 78.7678 308.978 71C308.978 63.2322 315.288 56.9352 323.072 56.9352Z" fill="#C5E4DF"/>
<path d="M148.913 137.306C186.164 137.306 216.362 107.17 216.362 69.9955C216.362 32.8211 186.164 2.6853 148.913 2.6853C111.662 2.6853 81.4636 32.8211 81.4636 69.9955C81.4636 107.17 111.662 137.306 148.913 137.306Z" fill="#C5E4DF" stroke="#6BC9B5" stroke-width="2.5"/>
<path fill-rule="evenodd" clip-rule="evenodd" d="M138.105 122.224C141.646 122.876 145.248 123.215 148.913 123.241C178.38 123.241 202.268 99.4021 202.268 69.9955C202.268 40.5889 178.38 16.7501 148.913 16.7501C141.343 16.7501 134.141 18.3232 127.619 21.1597C116.283 26.0889 106.997 34.8333 101.388 45.7676C97.6604 53.0352 95.5574 61.2703 95.5574 69.9955C95.5574 77.912 97.2886 85.425 100.394 92.1779C102.611 96.9991 105.528 101.433 109.016 105.35" fill="white"/>
<path d="M138.105 122.224C141.646 122.876 145.248 123.215 148.913 123.241C178.38 123.241 202.268 99.4021 202.268 69.9955C202.268 40.5889 178.38 16.7501 148.913 16.7501C141.343 16.7501 134.141 18.3232 127.619 21.1597C116.283 26.0889 106.997 34.8333 101.388 45.7676C97.6604 53.0352 95.5574 61.2703 95.5574 69.9955C95.5574 77.912 97.2886 85.425 100.394 92.1779C102.611 96.9991 105.528 101.433 109.016 105.35" stroke="#6BC9B5" stroke-width="2.5" stroke-linecap="round"/>
<path d="M115.284 111.335C119.609 114.844 124.495 117.689 129.787 119.718" stroke="#6BC9B5" stroke-width="2.5" stroke-linecap="round"/>
<path d="M204.281 123.241L216.362 135.296" stroke="#6BC9B5" stroke-width="2.5"/>
<path fill-rule="evenodd" clip-rule="evenodd" d="M214.409 133.348C210.599 137.151 210.599 143.317 214.409 147.12L236.729 169.393C240.539 173.196 246.718 173.196 250.529 169.393C254.339 165.59 254.339 159.424 250.529 155.621L228.209 133.348C224.399 129.545 218.22 129.545 214.409 133.348Z" fill="#F2FAF8" stroke="#6BC9B5" stroke-width="2.5"/>
<path d="M224.415 137.306L246.563 159.408" stroke="white" stroke-width="2.5" stroke-linecap="round"/>
<path fill-rule="evenodd" clip-rule="evenodd" d="M135.826 46.8891C135.826 70.1924 154.756 89.0835 178.107 89.0835C182.694 89.0835 187.111 88.3545 191.247 87.0062C184.496 103.725 168.085 115.527 148.913 115.527C123.715 115.527 103.288 95.1417 103.288 69.9956C103.288 47.2096 120.06 28.333 141.956 24.9902C138.066 31.3761 135.826 38.8715 135.826 46.8891Z" fill="#F2FAF8"/>
<path d="M149.919 32.8242C147.356 32.8242 144.851 33.0759 142.428 33.5559M135.11 35.79C121.337 41.5661 111.665 55.1559 111.665 71.0001" stroke="#9CDBCE" stroke-width="2.5" stroke-linecap="round"/>
<path d="M256.984 70.5526H240.523M269.717 54.9259H235.135H269.717ZM283.811 54.9259H279.339H283.811Z" stroke="#9CDBCE" stroke-width="2.5" stroke-linecap="round" stroke-linejoin="round"/>
<path d="M75.7773 114.756H59.3161M66.363 97.1204H31.7812H66.363ZM20.0547 97.1204H11.5557H20.0547Z" stroke="#9CDBCE" stroke-width="2.5" stroke-linecap="round" stroke-linejoin="round"/>
</svg>
