<svg width="62" height="62" viewBox="0 0 62 62" fill="none" xmlns="http://www.w3.org/2000/svg">
<g clip-path="url(#clip0_1323_10184)">
<path d="M30.9 61.8C47.9656 61.8 61.8 47.9656 61.8 30.9C61.8 13.8344 47.9656 0 30.9 0C13.8344 0 0 13.8344 0 30.9C0 47.9656 13.8344 61.8 30.9 61.8Z" fill="#6BC9B5"/>
<path fill-rule="evenodd" clip-rule="evenodd" d="M23.2422 38.592L39.1622 38.801V51.719L23.2552 51.598L23.2422 38.592Z" fill="#F9DCA4"/>
<path fill-rule="evenodd" clip-rule="evenodd" d="M53.478 51.9929C50.5906 55.0915 47.0955 57.5616 43.2108 59.2489C39.3261 60.9363 35.1353 61.8047 30.9 61.7999C29.6173 61.7998 28.3359 61.7207 27.063 61.5629C23.1422 61.0779 19.3518 59.8406 15.9 57.9189C12.9609 56.2834 10.3073 54.181 8.04297 51.6939L9.32697 48.5939L23.252 42.3819C23.252 46.9169 25.092 48.5339 31.222 48.6259C38.792 48.7389 39.162 47.0199 39.162 42.3459L51.952 48.6269L53.478 51.9929Z" fill="#D5E1ED"/>
<path opacity="0.11" fill-rule="evenodd" clip-rule="evenodd" d="M39.1652 38.778V42.182C36.4152 47.096 25.1652 47.18 23.2422 38.592L39.1652 38.778Z" fill="black"/>
<path fill-rule="evenodd" clip-rule="evenodd" d="M31.1291 8.43188C52.4101 8.43188 44.1161 43.6979 31.1291 43.6979C18.8621 43.6979 9.84807 8.43188 31.1291 8.43188Z" fill="#FFE8BE"/>
<path fill-rule="evenodd" clip-rule="evenodd" d="M18.3648 24.0449C15.2948 25.3849 17.9048 31.7319 19.8368 31.7029C19.0355 29.2199 18.5412 26.6481 18.3648 24.0449ZM44.1398 24.0449C47.2098 25.3839 44.5998 31.7319 42.6688 31.7029C43.4696 29.2198 43.9636 26.648 44.1398 24.0449Z" fill="#F9DCA4"/>
<path fill-rule="evenodd" clip-rule="evenodd" d="M43.4089 29.5839C43.4089 29.5839 44.4749 20.8679 41.3939 17.8319C40.0539 21.3599 33.8919 22.5649 33.8919 22.5649C35.0884 21.728 36.1694 20.7372 37.1069 19.6179C35.4549 20.3329 30.2309 22.4759 25.4969 20.7789C26.7848 20.0026 27.9959 19.1055 29.1139 18.0999C29.1139 18.0999 24.8269 20.4219 20.6739 19.8419C17.6829 22.0739 19.0139 29.0039 19.0139 29.0039C14.9999 18.4169 18.6969 6.29588 31.3899 6.22588C43.7479 6.15688 47.5609 18.0729 43.4089 29.5839Z" fill="#ECBE6A"/>
<path fill-rule="evenodd" clip-rule="evenodd" d="M23.2549 42.179C25.2004 45.0777 27.9734 47.3238 31.2129 48.625L26.0309 53.974L19.4399 43.87L23.2549 42.179Z" fill="white"/>
<path fill-rule="evenodd" clip-rule="evenodd" d="M39.1601 42.179C37.2146 45.0777 34.4417 47.3237 31.2021 48.625L36.3831 53.974L42.9751 43.871L39.1601 42.179Z" fill="white"/>
<path fill-rule="evenodd" clip-rule="evenodd" d="M33.3658 61.7001C32.5398 61.7648 31.7051 61.7974 30.8618 61.7981C30.2258 61.7981 29.5941 61.7794 28.9668 61.7421L29.9978 52.9851H32.4078L33.3658 61.7001Z" fill="#3DBC93"/>
<path fill-rule="evenodd" clip-rule="evenodd" d="M28.4722 51.4559L31.2092 48.6389L33.9452 51.4559L31.2092 54.2729L28.4722 51.4559Z" fill="#3DBC93"/>
</g>
<defs>
<clipPath id="clip0_1323_10184">
<rect width="61.8" height="61.8" fill="white"/>
</clipPath>
</defs>
</svg>
