<svg width="62" height="62" viewBox="0 0 62 62" fill="none" xmlns="http://www.w3.org/2000/svg">
<g clip-path="url(#clip0_1323_10165)">
<path fill-rule="evenodd" clip-rule="evenodd" d="M31.1292 8.43188C52.4102 8.43188 44.1162 43.6979 31.1292 43.6979C18.8632 43.6979 9.84823 8.43188 31.1292 8.43188Z" fill="#FFE8BE"/>
<path d="M30.9 61.8C47.9656 61.8 61.8 47.9656 61.8 30.9C61.8 13.8344 47.9656 0 30.9 0C13.8344 0 0 13.8344 0 30.9C0 47.9656 13.8344 61.8 30.9 61.8Z" fill="#6BC9B5"/>
<path fill-rule="evenodd" clip-rule="evenodd" d="M45.4868 19.9871L16.3138 20.1621C16.3138 20.1621 17.3618 36.3101 13.6948 41.3721H49.3958C48.4758 40.0221 46.0428 39.5871 45.4868 19.9871Z" fill="#60350A"/>
<path fill-rule="evenodd" clip-rule="evenodd" d="M18.1348 45.5991L25.3408 42.4121L36.8908 42.1121L44.3108 46.0091L38.9538 57.2241L31.3408 61.3121L23.4658 56.9621L18.1348 45.5991Z" fill="#D5E1ED"/>
<path fill-rule="evenodd" clip-rule="evenodd" d="M24.7441 38.6799L37.6751 38.7639V47.7129L24.7441 47.6279V38.6799Z" fill="#F9DCA4"/>
<path opacity="0.11" fill-rule="evenodd" clip-rule="evenodd" d="M37.677 38.7779V42.3579C37.691 42.767 37.6777 43.1766 37.637 43.5839C37.5767 44.0355 37.4719 44.48 37.324 44.9109C32.954 49.0759 25.945 45.6909 24.834 38.5779L37.677 38.7779Z" fill="black"/>
<path fill-rule="evenodd" clip-rule="evenodd" d="M52.7968 52.701C49.9017 55.6092 46.4562 57.9116 42.6615 59.4737C38.8668 61.0358 34.7989 61.8262 30.6954 61.799C26.5918 61.7717 22.5348 60.9272 18.7612 59.3148C14.9876 57.7024 11.573 55.3545 8.7168 52.408L9.9378 49.31L19.0408 45.188C22.3028 51.168 25.8508 56.712 31.3578 60.643C36.3428 56.4936 40.3808 51.3242 43.1998 45.483L51.3438 49.336L52.7968 52.701Z" fill="#434955"/>
<path fill-rule="evenodd" clip-rule="evenodd" d="M19.1098 24.1829C16.1518 25.4729 18.6678 31.5929 20.5298 31.5659C19.7572 29.172 19.2803 26.6926 19.1098 24.1829ZM43.5068 24.1819C46.4668 25.4739 43.9498 31.5929 42.0878 31.5659C42.8603 29.1717 43.3369 26.6919 43.5068 24.1819Z" fill="#F9DCA4"/>
<path fill-rule="evenodd" clip-rule="evenodd" d="M31.1138 8.66602C39.8358 8.66602 43.4908 14.866 43.7148 22.033C44.0218 31.843 38.0398 43.463 31.1148 43.463C24.5548 43.463 18.4088 31.445 18.7818 21.535C19.0418 14.582 22.5958 8.66602 31.1138 8.66602Z" fill="#FFE8BE"/>
<path fill-rule="evenodd" clip-rule="evenodd" d="M33.3988 24.9831C34.9614 24.0285 36.818 23.6755 38.6219 23.9901H38.6268C43.7808 24.6201 43.8608 26.2221 43.3598 26.5911C43.0245 26.8682 42.7561 27.2176 42.5749 27.6131C42.4629 28.6572 42.1021 29.6592 41.5228 30.5351C41.1371 31.1393 40.63 31.6569 40.0337 32.0549C39.4374 32.4529 38.7649 32.7226 38.0588 32.8471C37.8908 32.8741 37.7188 32.8951 37.5428 32.9051C36.8548 32.9544 36.1649 32.8392 35.5301 32.5689C34.8954 32.2987 34.3342 31.8812 33.8928 31.3511C33.2546 30.6017 32.7542 29.7451 32.4148 28.8211V28.8241C32.4148 28.8241 31.6178 27.1881 30.3428 28.7101C30.0004 29.6749 29.4853 30.5695 28.8228 31.3501C28.3814 31.8804 27.82 32.2981 27.1851 32.5685C26.5503 32.8389 25.8601 32.9543 25.1718 32.9051C24.999 32.8943 24.8268 32.8749 24.6558 32.8471C23.9498 32.7226 23.2774 32.4528 22.6811 32.0548C22.0848 31.6568 21.5776 31.1393 21.1918 30.5351C20.6128 29.6594 20.252 28.6578 20.1398 27.6141C19.9672 27.2172 19.7034 26.8667 19.3698 26.5911C18.8698 26.2211 18.9448 24.6181 24.0988 23.9881H24.1008C25.9122 23.6752 27.7755 24.0343 29.3408 24.9981L29.3398 24.9971L29.3428 24.9991L29.5578 25.1301C30.1573 25.4365 30.8254 25.5839 31.4982 25.558C32.1709 25.5321 32.8258 25.3337 33.3998 24.9821L33.3988 24.9831ZM28.7268 25.6211C27.7975 25.0843 26.7518 24.7809 25.6795 24.7368C24.6072 24.6927 23.5401 24.9093 22.5698 25.3681C21.0588 26.0541 20.5978 26.5381 21.1838 28.5311C21.3426 29.0747 21.5826 29.5912 21.8958 30.0631C22.2493 30.6382 22.7361 31.1198 23.315 31.467C23.894 31.8143 24.548 32.017 25.2218 32.0581C25.7817 32.0966 26.3427 32.0013 26.8584 31.7802C27.3742 31.559 27.8299 31.2182 28.1878 30.7861C28.7807 30.0847 29.2415 29.2818 29.5478 28.4161C30.2268 26.6361 30.4098 26.5531 28.7278 25.6211H28.7268ZM39.6738 25.1711C38.7145 24.8107 37.6855 24.6742 36.6654 24.7722C35.6453 24.8701 34.6611 25.1998 33.7878 25.7361C32.2498 26.6471 32.5298 26.7991 33.2098 28.5261C33.5123 29.3509 33.9578 30.1159 34.5258 30.7861C34.8839 31.2184 35.3398 31.5592 35.8557 31.7804C36.3717 32.0016 36.9328 32.0968 37.4928 32.0581C37.6369 32.0494 37.7804 32.0334 37.9228 32.0101C38.514 31.9036 39.0767 31.6756 39.5752 31.3404C40.0737 31.0053 40.4972 30.5703 40.8188 30.0631C41.1144 29.6182 41.3448 29.1333 41.5028 28.6231C42.2048 26.3731 41.5788 25.8721 39.6748 25.1721L39.6738 25.1711Z" fill="#464449"/>
<path fill-rule="evenodd" clip-rule="evenodd" d="M17.89 25.6079C17.89 24.9699 18.874 24.7219 19.488 28.5509C19.9839 26.9869 20.3045 25.3727 20.444 23.7379C21.606 23.9629 22.722 26.5859 22.371 28.8859C25.537 28.1089 33.674 23.1989 36.32 16.5619C43.092 20.4629 43.055 28.6559 43.055 28.6559C43.055 28.6559 43.413 26.7559 43.613 25.1399C43.679 24.6019 43.906 24.4069 44.411 24.9269C48.073 17.3429 42.3 5.74988 31.297 5.56988C16.189 5.32388 14.267 21.6839 17.891 25.6089L17.89 25.6079Z" fill="#8A5C42"/>
<path fill-rule="evenodd" clip-rule="evenodd" d="M24.765 42.4309C26.345 44.7854 28.597 46.6098 31.228 47.6669L27.02 53.8109L21.103 44.0309L24.765 42.4309Z" fill="white"/>
<path fill-rule="evenodd" clip-rule="evenodd" d="M37.6822 42.4309C36.1022 44.7853 33.8502 46.6098 31.2192 47.6669L35.4282 53.8109L41.3812 44.1429L37.6822 42.4309Z" fill="white"/>
<path d="M31.2228 53.4009C31.6862 53.4009 32.0618 53.0253 32.0618 52.5619C32.0618 52.0985 31.6862 51.7229 31.2228 51.7229C30.7594 51.7229 30.3838 52.0985 30.3838 52.5619C30.3838 53.0253 30.7594 53.4009 31.2228 53.4009Z" fill="#434955"/>
<path d="M31.2228 57.1299C31.6862 57.1299 32.0618 56.7543 32.0618 56.2909C32.0618 55.8275 31.6862 55.4519 31.2228 55.4519C30.7594 55.4519 30.3838 55.8275 30.3838 56.2909C30.3838 56.7543 30.7594 57.1299 31.2228 57.1299Z" fill="#434955"/>
<path fill-rule="evenodd" clip-rule="evenodd" d="M41.9972 24.7371C43.7812 25.4491 43.7162 26.3181 43.3642 26.5781C43.0288 26.8552 42.7605 27.2046 42.5792 27.6001C42.5011 28.3226 42.3044 29.0274 41.9972 29.6861V24.7371ZM20.5282 29.2161C20.3329 28.696 20.2039 28.1534 20.1442 27.6011C19.9717 27.2042 19.7078 26.8537 19.3742 26.5781C19.0372 26.3291 18.9612 25.5181 20.5282 24.8241V29.2161Z" fill="#464449"/>
</g>
<defs>
<clipPath id="clip0_1323_10165">
<rect width="61.8" height="61.8" fill="white"/>
</clipPath>
</defs>
</svg>
