<svg width="62" height="62" viewBox="0 0 62 62" fill="none" xmlns="http://www.w3.org/2000/svg">
<g clip-path="url(#clip0_1323_10198)">
<path d="M30.9 61.8C47.9656 61.8 61.8 47.9656 61.8 30.9C61.8 13.8344 47.9656 0 30.9 0C13.8344 0 0 13.8344 0 30.9C0 47.9656 13.8344 61.8 30.9 61.8Z" fill="#6BC9B5"/>
<path fill-rule="evenodd" clip-rule="evenodd" d="M23.2549 38.6799L39.1619 38.8009V51.7189L23.2549 51.5979V38.6799Z" fill="#F9DCA4"/>
<path fill-rule="evenodd" clip-rule="evenodd" d="M43.9709 58.905C39.9275 60.7881 35.5251 61.7756 31.0647 61.7997C26.6044 61.8239 22.1915 60.8842 18.1279 59.045V48.417H43.9699L43.9709 58.905Z" fill="#E6E6E6"/>
<path fill-rule="evenodd" clip-rule="evenodd" d="M33.4029 61.6999C32.5776 61.7659 31.7432 61.7992 30.8999 61.7999C30.2632 61.7999 29.6315 61.7809 29.0049 61.7429L30.0349 52.7549H32.4449L33.4029 61.6999Z" fill="#E9573E"/>
<path fill-rule="evenodd" clip-rule="evenodd" d="M25.657 61.3321C22.25 60.6975 18.9599 59.547 15.9 57.9201C12.9609 56.2845 10.3073 54.1821 8.04297 51.6951L9.32697 48.5951L23.252 42.3831C23.252 47.5951 24.963 55.8641 25.657 61.3321Z" fill="#677079"/>
<path opacity="0.11" fill-rule="evenodd" clip-rule="evenodd" d="M39.1652 38.7589V41.9899C34.4332 47.5169 25.3922 46.7349 23.3652 38.5779L39.1652 38.7589Z" fill="black"/>
<path fill-rule="evenodd" clip-rule="evenodd" d="M31.1291 8.43188C52.4101 8.43188 44.1161 43.6979 31.1291 43.6979C18.8621 43.6979 9.84807 8.43188 31.1291 8.43188Z" fill="#FFE8BE"/>
<path fill-rule="evenodd" clip-rule="evenodd" d="M18.3648 24.0459C15.2948 25.3849 17.9048 31.7319 19.8368 31.7039C19.0354 29.2206 18.5411 26.6494 18.3648 24.0459ZM44.1398 24.0449C47.2098 25.3839 44.5998 31.7319 42.6688 31.7029C43.4696 29.2198 43.9636 26.648 44.1398 24.0449Z" fill="#F9DCA4"/>
<path fill-rule="evenodd" clip-rule="evenodd" d="M21.9312 14.328C18.5972 17.786 19.7702 27.358 19.7702 27.358L18.7202 26.863C12.1662 1.46902 50.3542 1.46801 43.7632 26.863L42.7132 27.358C42.7132 27.358 43.8872 17.786 40.5532 14.328C36.4342 18.323 26.0272 18.302 21.9312 14.328Z" fill="#464449"/>
<path fill-rule="evenodd" clip-rule="evenodd" d="M36.7671 61.2431C43.5244 59.9381 49.6517 56.4119 54.1751 51.2251L53.0851 48.5941L39.1611 42.3821C39.1611 47.5941 37.4611 55.7751 36.7671 61.2431Z" fill="#677079"/>
<path fill-rule="evenodd" clip-rule="evenodd" d="M39.1618 41.98L31.2358 48.445L37.8088 54.358C37.8088 54.358 39.5608 44.654 39.1618 41.98Z" fill="white"/>
<path fill-rule="evenodd" clip-rule="evenodd" d="M23.253 41.98L31.242 48.445L24.597 54.358C24.597 54.358 22.851 44.654 23.253 41.98Z" fill="white"/>
<path fill-rule="evenodd" clip-rule="evenodd" d="M28.1089 51.2269L31.2459 48.4089L34.3829 51.2269L31.2459 54.0439L28.1089 51.2269Z" fill="#E9573E"/>
<path fill-rule="evenodd" clip-rule="evenodd" d="M25.7669 61.3731C24.49 61.1594 23.2279 60.8655 21.9879 60.493C21.9491 60.4631 21.9111 60.4321 21.8739 60.4001L18.3389 54.01L22.8799 50.75H18.1279L19.1449 43.899L23.2549 41.3C23.4329 48.67 25.0139 56.9561 25.7669 61.3731ZM36.6449 61.266C37.2329 61.168 37.8149 61.032 38.3919 60.882C39.0735 60.7017 39.7516 60.5087 40.4259 60.3031L40.5599 60.26L44.0709 53.945L39.5299 50.703H44.2819L43.2649 43.8861L39.1549 41.3C38.9769 48.632 37.3969 56.871 36.6449 61.266Z" fill="#434955"/>
</g>
<defs>
<clipPath id="clip0_1323_10198">
<rect width="61.8" height="61.8" fill="white"/>
</clipPath>
</defs>
</svg>
