<svg width="62" height="62" viewBox="0 0 62 62" fill="none" xmlns="http://www.w3.org/2000/svg">
<g clip-path="url(#clip0_1323_10149)">
<path fill-rule="evenodd" clip-rule="evenodd" d="M31.1292 8.43188C52.4102 8.43188 44.1162 43.6979 31.1292 43.6979C18.8632 43.6979 9.84823 8.43188 31.1292 8.43188Z" fill="#FFE8BE"/>
<path d="M30.9 61.8C47.9656 61.8 61.8 47.9656 61.8 30.9C61.8 13.8344 47.9656 0 30.9 0C13.8344 0 0 13.8344 0 30.9C0 47.9656 13.8344 61.8 30.9 61.8Z" fill="#6BC9B5"/>
<path fill-rule="evenodd" clip-rule="evenodd" d="M16.6472 25.104C16.6472 25.104 18.0412 43.724 14.6672 48.749C11.2932 53.774 31.1772 48.559 31.1772 48.559L31.1832 13.696L16.6472 25.104Z" fill="#302E33"/>
<path fill-rule="evenodd" clip-rule="evenodd" d="M45.7049 25.104C45.7049 25.104 44.3109 43.724 47.6859 48.749C51.0609 53.774 31.1759 48.559 31.1759 48.559L31.1699 13.696L45.7049 25.104Z" fill="#302E33"/>
<path fill-rule="evenodd" clip-rule="evenodd" d="M52.7968 52.7009C52.1888 51.2389 52.3028 49.7829 47.4318 47.5139C45.1388 46.9719 39.2218 46.1949 38.1038 44.1139C37.5368 43.0619 37.6738 41.5789 37.6738 38.8219L24.7438 38.6799C24.7438 41.4569 24.8528 42.9379 24.2198 43.9779C23.0298 45.9349 15.2848 47.3619 12.8818 48.0019C8.7888 49.8209 9.2568 50.9269 8.7168 52.4079C11.573 55.3544 14.9876 57.7024 18.7612 59.3148C22.5348 60.9271 26.5918 61.7716 30.6954 61.7989C34.7989 61.8262 38.8668 61.0357 42.6615 59.4736C46.4562 57.9116 49.9017 55.6092 52.7968 52.7009Z" fill="#F9DCA4"/>
<path opacity="0.11" fill-rule="evenodd" clip-rule="evenodd" d="M37.6771 38.778L37.6621 41.279C37.5701 42.3139 37.7602 43.3545 38.2121 44.29C33.7601 47.71 25.4181 46.885 24.4961 38.353L37.6771 38.778Z" fill="black"/>
<path fill-rule="evenodd" clip-rule="evenodd" d="M19.1098 24.1829C16.1518 25.4729 18.6678 31.5929 20.5298 31.5659C19.7572 29.172 19.2803 26.6926 19.1098 24.1829ZM43.5068 24.1819C46.4668 25.4739 43.9498 31.5929 42.0878 31.5659C42.8603 29.1717 43.3369 26.6919 43.5068 24.1819Z" fill="#F9DCA4"/>
<path fill-rule="evenodd" clip-rule="evenodd" d="M31.1138 8.66602C39.8358 8.66602 43.4908 14.866 43.7148 22.033C44.0218 31.843 38.0398 43.463 31.1148 43.463C24.5548 43.463 18.4088 31.445 18.7818 21.535C19.0418 14.582 22.5958 8.66602 31.1138 8.66602Z" fill="#FFE8BE"/>
<path fill-rule="evenodd" clip-rule="evenodd" d="M31.1828 13.697C30.6038 16.108 27.8828 23.864 16.6468 25.104C15.4768 5.78199 30.1818 6.25599 31.1828 6.31099C32.1848 6.25599 46.8898 5.78099 45.7188 25.104C34.4838 23.864 31.7618 16.108 31.1828 13.697Z" fill="#464449"/>
<path fill-rule="evenodd" clip-rule="evenodd" d="M52.7968 52.701C37.9268 57.279 18.6288 54.516 12.8818 48.002C8.7888 49.821 9.2568 50.927 8.7168 52.408C11.573 55.3544 14.9876 57.7024 18.7612 59.3148C22.5348 60.9272 26.5918 61.7717 30.6954 61.7989C34.7989 61.8262 38.8668 61.0357 42.6615 59.4737C46.4562 57.9116 49.9017 55.6092 52.7968 52.701Z" fill="#E9573E"/>
<path fill-rule="evenodd" clip-rule="evenodd" d="M42.7969 46.5181L43.8679 46.7711L43.8639 54.8891H42.7969V46.5181Z" fill="#E9573E"/>
<path fill-rule="evenodd" clip-rule="evenodd" d="M23.8341 44.4199C23.8361 44.4329 24.7121 48.8709 31.3781 48.8709C38.0191 48.8709 38.4241 44.5649 38.4251 44.5529L38.6131 44.7359C38.6131 44.7479 38.0491 49.4379 31.3781 49.4379C24.5811 49.4379 23.6221 44.6079 23.6191 44.5929L23.8341 44.4199Z" fill="#464449"/>
<path d="M31.324 51.3539C32.1596 51.3539 32.837 50.4992 32.837 49.4449C32.837 48.3906 32.1596 47.5359 31.324 47.5359C30.4884 47.5359 29.811 48.3906 29.811 49.4449C29.811 50.4992 30.4884 51.3539 31.324 51.3539Z" fill="#464449"/>
</g>
<defs>
<clipPath id="clip0_1323_10149">
<rect width="61.8" height="61.8" fill="white"/>
</clipPath>
</defs>
</svg>
