<svg width="62" height="62" viewBox="0 0 62 62" fill="none" xmlns="http://www.w3.org/2000/svg">
<g clip-path="url(#clip0_1323_10215)">
<path d="M30.9 61.8C47.9656 61.8 61.8 47.9656 61.8 30.9C61.8 13.8344 47.9656 0 30.9 0C13.8344 0 0 13.8344 0 30.9C0 47.9656 13.8344 61.8 30.9 61.8Z" fill="#6BC9B5"/>
<path fill-rule="evenodd" clip-rule="evenodd" d="M52.5869 52.9079C46.7555 58.6558 38.881 61.8537 30.6932 61.7991C22.5054 61.7445 14.6742 58.442 8.91992 52.6169C9.65583 50.5818 11.0852 48.871 12.9569 47.7849C14.2185 46.8522 15.5864 46.0727 17.0319 45.4629C14.8339 37.9099 20.8089 34.1969 23.0949 33.1279C23.0949 36.6149 26.3599 34.3009 30.4119 34.3449C33.7479 34.3819 40.3449 37.7399 40.3449 33.3099C44.0149 34.3959 48.0149 41.3899 45.2619 45.6869C46.3907 46.2388 47.4571 46.91 48.4429 47.6889C50.3702 48.9153 51.8296 50.7527 52.5869 52.9079Z" fill="#677079"/>
<path fill-rule="evenodd" clip-rule="evenodd" d="M24.0318 38.6799L38.9518 38.7699V42.2069L38.9448 42.2599C38.9345 42.4156 38.9111 42.5702 38.8748 42.7219L38.8248 43.0629L38.7948 43.1339C37.8288 48.2079 33.6018 50.1689 30.9918 51.5349C28.2418 50.0369 24.3538 47.3379 24.0448 42.5629L24.0318 42.5039V42.3039C24.0297 42.235 24.0284 42.1659 24.0278 42.0969C24.0278 42.1329 24.0308 42.1669 24.0318 42.2029V38.6799Z" fill="#F9DCA4"/>
<path opacity="0.11" fill-rule="evenodd" clip-rule="evenodd" d="M38.9528 38.6169V42.6219C38.9499 42.9932 38.9182 43.3636 38.8578 43.7299C38.7821 44.1834 38.6546 44.6266 38.4778 45.0509C33.2938 48.9659 25.0338 45.7549 23.7148 39.0679L38.9528 38.6169Z" fill="black"/>
<path fill-rule="evenodd" clip-rule="evenodd" d="M18.1039 25.2351C13.1639 26.5051 17.3639 32.5251 20.4709 32.4991C19.2179 30.2543 18.414 27.7871 18.1039 25.2351ZM43.8369 25.2351C48.7769 26.5051 44.5769 32.5251 41.4689 32.4981C42.7222 30.2538 43.5265 27.7869 43.8369 25.2351Z" fill="#F9DCA4"/>
<path fill-rule="evenodd" clip-rule="evenodd" d="M30.7332 11.3611C51.2562 11.3611 43.2582 43.8071 30.7332 43.8071C18.9032 43.8071 10.2102 11.3611 30.7332 11.3611Z" fill="#FFE8BE"/>
<path fill-rule="evenodd" clip-rule="evenodd" d="M21.0471 22.105C21.2222 22.2969 21.352 22.5257 21.427 22.7744C21.5021 23.0231 21.5204 23.2854 21.4807 23.5421C21.441 23.7989 21.3442 24.0434 21.1975 24.2578C21.0508 24.4722 20.858 24.651 20.6331 24.781C19.1831 25.974 19.1301 30.134 19.1301 30.134C18.5701 29.578 18.5831 26.6 17.3691 24.879C16.1551 23.158 15.3371 11.116 22.1261 6.73703C21.7089 7.22773 21.4082 7.80653 21.2466 8.43001C21.085 9.05349 21.0667 9.70546 21.1931 10.337C21.1931 10.337 25.9091 3.57403 33.7331 3.76903C33.1128 4.10724 32.5707 4.57235 32.1422 5.13405C31.7137 5.69575 31.4084 6.34143 31.2461 7.02903C31.2461 7.02903 38.0861 4.20703 43.7861 7.56403C42.3041 7.97363 40.9025 8.632 39.6411 9.51103C42.4091 9.58703 45.0841 10.101 47.1011 11.895C46.667 12.0344 46.2652 12.2593 45.9195 12.5566C45.5738 12.8538 45.2912 13.2173 45.0884 13.6256C44.8855 14.0339 44.7666 14.4788 44.7385 14.9338C44.7105 15.3889 44.7739 15.8449 44.9251 16.275C45.7811 19.778 45.8611 23.037 45.0321 24.789C44.2031 26.541 43.8121 25.41 43.2931 29.084C43.2676 29.3322 43.1848 29.5711 43.0512 29.7818C42.9176 29.9925 42.7367 30.1692 42.5231 30.298C42.5031 30.564 42.9051 26.542 41.8681 25.471C40.8321 24.401 41.4831 23.086 41.8971 22.308C44.7871 16.881 36.1321 14.422 31.4011 14.428C27.2981 14.433 17.4011 16.298 21.0471 22.105Z" fill="#8A5C42"/>
<path fill-rule="evenodd" clip-rule="evenodd" d="M19.79 49.1619C19.82 49.1999 30.208 62.6449 42.42 48.9619C40.945 53.0139 34.583 56.2319 30.944 56.2219C23.994 56.2019 20.148 50.6219 19.79 49.1619Z" fill="#434955"/>
<path fill-rule="evenodd" clip-rule="evenodd" d="M36.3358 61.323C35.9258 61.395 35.5138 61.458 35.0988 61.515V52.578C35.114 52.4283 35.1872 52.2905 35.3027 52.1941C35.4182 52.0976 35.5668 52.0502 35.7168 52.062C35.867 52.05 36.0159 52.0972 36.1316 52.1937C36.2473 52.2902 36.3206 52.4281 36.3358 52.578V61.323ZM26.5158 61.489C26.1011 61.4296 25.6888 61.363 25.2788 61.289V52.578C25.294 52.4283 25.3672 52.2905 25.4827 52.1941C25.5982 52.0976 25.7468 52.0502 25.8968 52.062C26.0471 52.0497 26.1963 52.0968 26.3122 52.1933C26.4281 52.2898 26.5016 52.4279 26.5168 52.578L26.5158 61.489Z" fill="#E6E6E6"/>
</g>
<defs>
<clipPath id="clip0_1323_10215">
<rect width="61.8" height="61.8" fill="white"/>
</clipPath>
</defs>
</svg>
