<svg width="62" height="63" viewBox="0 0 62 63" fill="none" xmlns="http://www.w3.org/2000/svg">
<g clip-path="url(#clip0_1323_10227)">
<path fill-rule="evenodd" clip-rule="evenodd" d="M31.1292 8.43188C52.4102 8.43188 44.1172 43.6979 31.1292 43.6979C18.8632 43.6979 9.84823 8.43188 31.1292 8.43188Z" fill="#FFE8BE"/>
<path d="M30.9 61.8C47.9656 61.8 61.8 47.9656 61.8 30.9C61.8 13.8344 47.9656 0 30.9 0C13.8344 0 0 13.8344 0 30.9C0 47.9656 13.8344 61.8 30.9 61.8Z" fill="#6BC9B5"/>
<path fill-rule="evenodd" clip-rule="evenodd" d="M52.7968 52.701C52.1888 51.239 52.3028 49.783 47.4318 47.514C45.1388 46.972 39.2218 46.195 38.1038 44.114C37.5378 43.062 37.6738 41.579 37.6738 38.822L24.7438 38.679C24.7438 41.457 24.8528 42.938 24.2198 43.978C23.0298 45.935 15.2848 47.362 12.8818 48.002C8.7888 49.821 9.2568 50.927 8.7168 52.408C11.573 55.3544 14.9876 57.7024 18.7612 59.3148C22.5348 60.9272 26.5918 61.7717 30.6954 61.7989C34.7989 61.8262 38.8668 61.0357 42.6615 59.4737C46.4562 57.9116 49.9017 55.6092 52.7968 52.701Z" fill="#F9DCA4"/>
<path fill-rule="evenodd" clip-rule="evenodd" d="M52.7968 52.701C52.2208 51.317 52.2918 49.938 48.1708 47.871C47.9426 47.717 47.6934 47.5968 47.4308 47.514C46.9428 47.398 46.0708 47.228 45.6388 47.142C44.4718 54.275 26.3518 64.005 16.6828 47.095C15.6428 47.339 13.4638 47.847 12.8818 48.002C8.7888 49.821 9.2568 50.928 8.7168 52.408C11.573 55.3545 14.9876 57.7024 18.7612 59.3148C22.5348 60.9272 26.5918 61.7717 30.6954 61.7989C34.7989 61.8262 38.8668 61.0357 42.6615 59.4737C46.4562 57.9116 49.9017 55.6092 52.7968 52.701Z" fill="#9F82BB"/>
<mask id="mask0_1323_10227" style="mask-type:luminance" maskUnits="userSpaceOnUse" x="8" y="47" width="45" height="15">
<path fill-rule="evenodd" clip-rule="evenodd" d="M52.7968 52.701C52.2208 51.317 52.2918 49.938 48.1708 47.871C47.9426 47.717 47.6934 47.5968 47.4308 47.514C46.9428 47.398 46.0708 47.228 45.6388 47.142C44.4718 54.275 26.3518 64.005 16.6828 47.095C15.6428 47.339 13.4638 47.847 12.8818 48.002C8.7888 49.821 9.2568 50.928 8.7168 52.408C11.573 55.3545 14.9876 57.7024 18.7612 59.3148C22.5348 60.9272 26.5918 61.7717 30.6954 61.7989C34.7989 61.8262 38.8668 61.0357 42.6615 59.4737C46.4562 57.9116 49.9017 55.6092 52.7968 52.701Z" fill="white"/>
</mask>
<g mask="url(#mask0_1323_10227)">
<path d="M15.124 52.405C15.9861 52.405 16.685 51.7061 16.685 50.844C16.685 49.9818 15.9861 49.283 15.124 49.283C14.2619 49.283 13.563 49.9818 13.563 50.844C13.563 51.7061 14.2619 52.405 15.124 52.405Z" fill="white"/>
<path d="M16.6748 58.6408C17.5369 58.6408 18.2358 57.9419 18.2358 57.0798C18.2358 56.2177 17.5369 55.5188 16.6748 55.5188C15.8127 55.5188 15.1138 56.2177 15.1138 57.0798C15.1138 57.9419 15.8127 58.6408 16.6748 58.6408Z" fill="white"/>
<path d="M24.0522 58.9579C24.9143 58.9579 25.6132 58.2591 25.6132 57.3969C25.6132 56.5348 24.9143 55.8359 24.0522 55.8359C23.1901 55.8359 22.4912 56.5348 22.4912 57.3969C22.4912 58.2591 23.1901 58.9579 24.0522 58.9579Z" fill="white"/>
<path d="M31.8261 62.571C32.6883 62.571 33.3871 61.8721 33.3871 61.01C33.3871 60.1479 32.6883 59.449 31.8261 59.449C30.964 59.449 30.2651 60.1479 30.2651 61.01C30.2651 61.8721 30.964 62.571 31.8261 62.571Z" fill="white"/>
<path d="M39.6362 58.4648C40.4983 58.4648 41.1972 57.7659 41.1972 56.9038C41.1972 56.0417 40.4983 55.3428 39.6362 55.3428C38.7741 55.3428 38.0752 56.0417 38.0752 56.9038C38.0752 57.7659 38.7741 58.4648 39.6362 58.4648Z" fill="white"/>
<path d="M47.0498 58.6259C47.9119 58.6259 48.6108 57.927 48.6108 57.0649C48.6108 56.2028 47.9119 55.5039 47.0498 55.5039C46.1877 55.5039 45.4888 56.2028 45.4888 57.0649C45.4888 57.927 46.1877 58.6259 47.0498 58.6259Z" fill="white"/>
<path d="M47.5752 52.1159C48.4373 52.1159 49.1362 51.417 49.1362 50.5549C49.1362 49.6928 48.4373 48.9939 47.5752 48.9939C46.713 48.9939 46.0142 49.6928 46.0142 50.5549C46.0142 51.417 46.713 52.1159 47.5752 52.1159Z" fill="white"/>
</g>
<path fill-rule="evenodd" clip-rule="evenodd" d="M45.2379 36.9669C46.6011 37.4796 48.1006 37.4992 49.4767 37.0226C50.8529 36.5459 52.0189 35.6029 52.7729 34.3569L56.4729 36.1099C56.4729 36.1099 53.8629 42.2469 48.1549 40.9499C46.0289 40.4669 44.6839 39.8999 43.4559 39.6679C39.4579 38.9129 38.0659 42.7239 42.4509 43.7789C44.8659 44.3589 48.0059 43.7369 48.7689 42.3009C50.1289 44.1269 47.8859 47.2659 45.8839 47.1909C40.3889 46.9829 37.6279 44.6039 37.6619 41.5009C37.6969 38.2669 40.0749 35.2859 45.2379 36.9669Z" fill="#E9573E"/>
<path fill-rule="evenodd" clip-rule="evenodd" d="M24.2578 39.172C24.0386 39.5387 23.9718 39.9767 24.0718 40.392C24.1652 41.5976 24.0121 42.8095 23.6218 43.954C21.1638 48.1 34.5888 55.076 39.8668 45.524C40.5568 44.49 37.5388 43.541 38.5088 40.354C38.5654 40.2174 38.5874 40.069 38.5727 39.9218C38.5579 39.7747 38.507 39.6335 38.4244 39.5109C38.3418 39.3883 38.2301 39.288 38.0993 39.2191C37.9685 39.1502 37.8226 39.1148 37.6748 39.116C37.6748 39.116 32.3308 43.597 24.2578 39.172Z" fill="#E9573E"/>
<mask id="mask1_1323_10227" style="mask-type:luminance" maskUnits="userSpaceOnUse" x="23" y="39" width="17" height="12">
<path fill-rule="evenodd" clip-rule="evenodd" d="M24.2578 39.172C24.0386 39.5387 23.9718 39.9767 24.0718 40.392C24.1652 41.5976 24.0121 42.8095 23.6218 43.954C21.1638 48.1 34.5888 55.076 39.8668 45.524C40.5568 44.49 37.5388 43.541 38.5088 40.354C38.5654 40.2174 38.5874 40.069 38.5727 39.9218C38.5579 39.7747 38.507 39.6335 38.4244 39.5109C38.3418 39.3883 38.2301 39.288 38.0993 39.2191C37.9685 39.1502 37.8226 39.1148 37.6748 39.116C37.6748 39.116 32.3308 43.597 24.2578 39.172Z" fill="white"/>
</mask>
<g mask="url(#mask1_1323_10227)">
<path opacity="0.11" fill-rule="evenodd" clip-rule="evenodd" d="M37.6768 38.778L39.3678 39.629C39.4078 40.499 39.4568 44.229 40.0698 45.166C38.2628 49.316 25.9348 48.574 24.1958 38.616L37.6768 38.778Z" fill="black"/>
</g>
<path fill-rule="evenodd" clip-rule="evenodd" d="M19.1098 24.1829C16.1518 25.4729 18.6678 31.5929 20.5298 31.5659C19.7572 29.172 19.2804 26.6926 19.1098 24.1829ZM43.5068 24.1819C46.4668 25.4739 43.9498 31.5929 42.0878 31.5659C42.8604 29.1717 43.3369 26.6919 43.5068 24.1819Z" fill="#F9DCA4"/>
<path fill-rule="evenodd" clip-rule="evenodd" d="M31.1138 8.66602C39.8358 8.66602 43.4908 14.866 43.7148 22.033C44.0218 31.843 38.0398 43.463 31.1148 43.463C24.5548 43.463 18.4088 31.445 18.7818 21.535C19.0418 14.582 22.5958 8.66602 31.1138 8.66602Z" fill="#FFE8BE"/>
<path fill-rule="evenodd" clip-rule="evenodd" d="M38.3611 16.5869C38.1871 17.3149 35.1871 22.8599 30.6771 24.7239C31.4331 23.4069 32.6471 21.8319 32.7351 20.3239C30.5731 23.4969 21.7521 26.6609 16.5351 25.1139C15.3641 5.7899 30.1821 6.2559 31.1831 6.3099C32.1851 6.2559 47.0401 5.9699 45.8691 25.2919C40.0341 24.2019 38.0391 19.7489 38.3611 16.5869Z" fill="#ECBE6A"/>
<path fill-rule="evenodd" clip-rule="evenodd" d="M16.7539 19.7781C18.0249 1.29311 44.6819 2.00611 45.6339 19.7781C41.2379 7.40011 20.5089 7.59111 16.7539 19.7781Z" fill="#E9573E"/>
<path fill-rule="evenodd" clip-rule="evenodd" d="M43.6599 24.657C43.6599 24.657 41.3709 35.363 34.0209 39.487C57.5489 33.251 49.9079 7.177 40.6179 7.163C37.7349 -0.699996 16.1679 1.46301 13.1679 16.613C10.1679 31.763 23.0909 38.376 24.1149 38.985C22.5337 36.6817 21.2612 34.181 20.3299 31.547C19.3034 30.9226 18.5389 29.9463 18.1789 28.8C17.8108 27.7008 17.7377 26.5243 17.9669 25.388C17.2409 25.257 16.6829 25.113 16.6829 25.113C16.5488 23.4424 16.5689 21.7629 16.7429 20.096C17.1329 16.202 18.5319 11 23.5729 8.149C27.0959 6.157 34.6919 5.599 39.2649 8.477C44.6269 11.851 46.0859 19.167 45.7169 25.104L43.6599 24.657Z" fill="#D6A956"/>
</g>
<defs>
<clipPath id="clip0_1323_10227">
<rect width="61.8" height="62.571" fill="white"/>
</clipPath>
</defs>
</svg>
