<svg width="342" height="310" viewBox="0 0 342 310" fill="none" xmlns="http://www.w3.org/2000/svg">
<path fill-rule="evenodd" clip-rule="evenodd" d="M180.921 202.489C179.926 202.3 178.294 202.442 176.25 202.896C173.982 203.276 171.037 204.215 169.512 204.863C167.986 205.51 167.857 205.612 167.067 206.034C154.404 211.646 137.391 219.085 145.988 238.805C154.585 258.526 171.839 298.324 174.128 303.602C179.711 316.477 216.454 302.574 209.323 288.67L198.881 264.019L197.957 261.838C222.848 273.949 252.64 275.635 280.124 263.975C330.593 242.563 354.162 184.26 332.767 133.751C311.371 83.242 253.114 59.6545 202.645 81.0663C155.638 101.01 158.564 139.291 123.778 154.151C102.089 163.416 59.0173 153.016 46.2 122.965C33.3827 92.9132 47.3346 58.1533 77.3623 45.3257C97.4692 36.737 119.684 40.161 136.017 52.3825C141.492 56.9032 148.695 59.2519 155.814 59.1806C156.809 59.3681 158.44 59.2216 160.483 58.7624C162.75 58.3765 165.009 57.7226 167.217 56.7791C168.056 56.42 168.87 56.0258 169.659 55.6012C174.949 53.2411 180.667 49.8022 185.037 45.4762C174.162 30.5494 159.935 18.3587 143.595 9.88686L143.776 10.3141C118.857 -1.73526 89.0594 -3.34811 61.6047 8.37998C11.1887 29.9172 -12.2361 88.2789 9.28369 138.734C30.8035 189.19 101.368 210.928 139.535 191.097C186.479 166.706 188.075 130.879 218.312 118.05C248.371 105.298 283.069 119.346 295.812 149.429C308.555 179.512 289.551 216.345 264.458 226.991C214.982 247.98 211.04 202.265 180.921 202.489Z" fill="#fff" stroke="#fff" stroke-width="0.755906" stroke-miterlimit="22.9256"/>
</svg>